<svg xmlns="http://www.w3.org/2000/svg" width="32" height="32" viewBox="0 0 32 32"><g transform="translate(-12464 2902)"><g transform="translate(12464 -2902)" fill="none" stroke="#00746b" stroke-width="2"><rect width="32" height="32" stroke="none"/><rect x="1" y="1" width="30" height="30" fill="none"/></g><g transform="translate(12472.158 -2897)"><path d="M1.8.562a1.8,1.8,0,1,0,1.8,1.8A1.8,1.8,0,0,0,1.8.562ZM2.969,2.131v.05a.113.113,0,0,1-.062.1l-.112.056a.113.113,0,0,1-.113-.007l-.133-.088a.113.113,0,0,0-.1-.013l-.019.006a.113.113,0,0,0-.058.17l.1.145a.113.113,0,0,0,.094.05h.06a.113.113,0,0,1,.113.113V2.8a.113.113,0,0,1-.023.068l-.136.182a.113.113,0,0,0-.021.047l-.031.166a.113.113,0,0,1-.035.062,1.161,1.161,0,0,0-.182.212l-.095.142a.2.2,0,0,1-.349-.022A.574.574,0,0,1,1.8,3.4V3.178a.113.113,0,0,0-.113-.113H1.5a.4.4,0,0,1-.4-.4v-.1a.4.4,0,0,1,.159-.318l.2-.151a.4.4,0,0,1,.239-.08h.006a.4.4,0,0,1,.178.042L2,2.113a.113.113,0,0,0,.086.006L2.426,2a.113.113,0,0,0-.036-.22H2.317a.113.113,0,0,1-.08-.033l-.05-.05a.113.113,0,0,0-.08-.033H1.452a.113.113,0,0,1-.113-.113V1.524a.113.113,0,0,1,.085-.109l.105-.026A.113.113,0,0,0,1.6,1.341l.059-.088a.113.113,0,0,1,.094-.05h.176a.113.113,0,0,0,.113-.113V.932A1.457,1.457,0,0,1,3.216,2.018H3.082A.113.113,0,0,0,2.969,2.131Z" transform="translate(12.391 4.979)" fill="#00746b"/><g transform="translate(0 0)"><path d="M386.7,135h.586l.22.073.476.476.073.22v8.571l-.293.733-.476.549-.659.366-.623.073V135.7a1.106,1.106,0,0,1,.4-.549Z" transform="translate(-379.333 -135)" fill="#00746b"/><path d="M340.7,146h.659l.22.073.4.4c.083.088.107.234.147.513v7.253l-.073.44-.293.659-.549.549-.806.366H340v-9.487l.33-.549Z" transform="translate(-336.703 -145.194)" fill="#00746b"/><path d="M295.7,175h.659l.476.33.22.44v5.641l-.293.733-.476.549-.659.366-.623.073V175.7a1.106,1.106,0,0,1,.4-.549Z" transform="translate(-295 -172.07)" fill="#00746b"/><path d="M432.941,190h2.271l.037.11-.073.44-.293.659-.549.549-.586.293-.623.073v2.894l-.073.44-.293.659-.549.549-.806.366H431v-5.238l.22-.659.7-.769.44-.22Z" transform="translate(-421.037 -185.971)" fill="#00746b"/><path d="M478.941,257l.11.037v5.385H477v-3.773l.147-.44.623-.769.513-.293.22-.073Z" transform="translate(-463.667 -248.062)" fill="#00746b"/><path d="M295,287h9.927l.037.037v.586l.366.952a3.3,3.3,0,0,0,.842.989l.879.513.476.11-8.352.073,1.062.256a3.845,3.845,0,0,1,1.429.989,3.971,3.971,0,0,1,.733,1.172l.147.44.073.293.073.806-.073.659-.293.879-.513.806-.549.549a1.968,1.968,0,0,1-.513.366,7.777,7.777,0,0,1-.879.366l-.293.073-.513.073h-.513s-.311-.037-.513-.073a1.7,1.7,0,0,1-.293-.073l-.733-.293-.659-.44-.549-.549-.586-1.026-.146-.44L295,294.8Z" transform="translate(-295 -275.865)" fill="#00746b"/><path d="M406.85,332h.842v.7l-.147.879-.073.293-.073.293-.22.659-.879,1.612-.989,1.135-1.465,1.1-.879.44a5.5,5.5,0,0,1-1.9.513l-.733.073H400v-.623l.147-1.026.513-1.538.513-.952.586-.806.989-.989,1.026-.733,1.026-.513.879-.293.659-.147Z" transform="translate(-392.308 -317.568)" fill="#00746b"/></g></g></g></svg>