<svg xmlns="http://www.w3.org/2000/svg" width="256" height="256" viewBox="0 0 256 256"><g transform="translate(-12463 2904)"><g transform="translate(12463 -2904)" fill="none" stroke="#00746b" stroke-width="4"><rect width="256" height="256" stroke="none"/><rect x="2" y="2" width="252" height="252" fill="none"/></g><g transform="translate(12513.158 -2883)"><path d="M17.481.562A17.481,17.481,0,1,0,34.963,18.044,17.481,17.481,0,0,0,17.481.562ZM28.76,15.753v.488a1.092,1.092,0,0,1-.6.977l-1.085.543a1.092,1.092,0,0,1-1.095-.068l-1.284-.856a1.094,1.094,0,0,0-.952-.128l-.187.062a1.092,1.092,0,0,0-.563,1.642l.933,1.4a1.092,1.092,0,0,0,.909.486h.579A1.093,1.093,0,0,1,26.5,21.393v.8a1.094,1.094,0,0,1-.219.656l-1.321,1.761a1.1,1.1,0,0,0-.2.453l-.3,1.609a1.1,1.1,0,0,1-.336.6,11.251,11.251,0,0,0-1.762,2.055l-.918,1.378a1.956,1.956,0,0,1-3.377-.21,5.562,5.562,0,0,1-.587-2.488V25.9a1.093,1.093,0,0,0-1.093-1.093H14.564a3.851,3.851,0,0,1-3.851-3.851v-.991a3.852,3.852,0,0,1,1.54-3.08L14.2,15.43a3.853,3.853,0,0,1,2.311-.77h.063a3.843,3.843,0,0,1,1.722.407l1.038.519a1.092,1.092,0,0,0,.834.059L23.5,14.533a1.092,1.092,0,0,0-.345-2.129h-.711a1.092,1.092,0,0,1-.773-.32l-.488-.488a1.092,1.092,0,0,0-.773-.32H14.063a1.093,1.093,0,0,1-1.093-1.093v-.31a1.093,1.093,0,0,1,.828-1.06l1.019-.254A1.094,1.094,0,0,0,15.46,8.1l.57-.854a1.092,1.092,0,0,1,.909-.486h1.707a1.093,1.093,0,0,0,1.093-1.093V4.143A14.117,14.117,0,0,1,31.151,14.66h-1.3A1.093,1.093,0,0,0,28.76,15.753Z" transform="translate(120.037 53.125)" fill="#00746b"/><g transform="translate(0 0)"><path d="M392.742,135h5.678l2.129.71,4.613,4.613.71,2.129v83.035l-2.839,7.1-4.613,5.323-6.387,3.549-6.033.71V141.742a10.711,10.711,0,0,1,3.9-5.323Z" transform="translate(-321.417 -135)" fill="#00746b"/><path d="M346.742,146h6.387l2.129.71,3.9,3.9c.8.852,1.041,2.271,1.419,4.968v70.261l-.71,4.258-2.839,6.387-5.323,5.323-7.807,3.549H340V153.452l3.194-5.323Z" transform="translate(-308.063 -138.193)" fill="#00746b"/><path d="M301.742,175h6.387l4.613,3.194,2.129,4.258V237.1l-2.839,7.1-4.613,5.323-6.387,3.549-6.033.71V181.742a10.712,10.712,0,0,1,3.9-5.323Z" transform="translate(-295 -146.612)" fill="#00746b"/><path d="M449.807,190h22l.355,1.065-.71,4.258-2.839,6.387-5.323,5.323-5.678,2.839-6.032.71v28.033l-.71,4.258-2.839,6.387-5.323,5.323-7.807,3.549H431V207.388L433.129,201l6.742-7.452,4.258-2.129Z" transform="translate(-334.48 -150.966)" fill="#00746b"/><path d="M495.807,257l1.065.355v52.163H477v-36.55l1.419-4.258,6.032-7.452,4.968-2.839,2.129-.71Z" transform="translate(-347.834 -170.416)" fill="#00746b"/><path d="M295,287h96.165l.355.355v5.678l3.548,9.226a31.977,31.977,0,0,0,8.162,9.581l8.516,4.968,4.613,1.065-80.906.71,10.291,2.484a37.249,37.249,0,0,1,13.839,9.581A38.474,38.474,0,0,1,366.68,342l1.419,4.258.71,2.839.71,7.807-.71,6.387-2.839,8.516L361,379.616l-5.323,5.323a19.062,19.062,0,0,1-4.968,3.549,75.33,75.33,0,0,1-8.516,3.549l-2.839.71-4.968.71h-4.968s-3.016-.355-4.968-.71a16.464,16.464,0,0,1-2.839-.71l-7.1-2.839-6.387-4.258-5.323-5.323-5.678-9.936-1.419-4.258-.71-2.839Z" transform="translate(-295 -179.125)" fill="#00746b"/><path d="M466.357,332h8.162v6.742l-1.419,8.516-.71,2.839-.71,2.839-2.129,6.387-8.516,15.613-9.581,11-14.194,10.646-8.516,4.258c-9.629,3.733-7.238,3.192-18.452,4.968l-7.1.71H400v-6.033l1.419-9.936,4.968-14.9,4.968-9.226,5.678-7.807,9.581-9.581,9.936-7.1,9.936-4.968L455,334.129l6.387-1.419Z" transform="translate(-325.481 -192.188)" fill="#00746b"/></g></g></g></svg>